<svg xmlns="http://www.w3.org/2000/svg" width="184.427" height="184.427" viewBox="0 0 184.427 184.427">
  <path id="Icon_open-magnifying-glass" data-name="Icon open-magnifying-glass" d="M79.962.183a79.962,79.962,0,0,0,0,159.925,79.034,79.034,0,0,0,37.925-9.367,22.847,22.847,0,0,0,2.97,2.97L143.7,176.558a23.3,23.3,0,1,0,32.9-32.9l-22.846-22.846a22.847,22.847,0,0,0-3.655-2.97,78.888,78.888,0,0,0,10.052-37.925A80.05,80.05,0,0,0,80.191-.045Zm0,22.846a56.847,56.847,0,0,1,57.116,57.116A57.289,57.289,0,0,1,122,119.442l-.685.685a22.845,22.845,0,0,0-2.97,2.97,57.168,57.168,0,0,1-38.61,14.393,57.116,57.116,0,1,1,0-114.232Z" transform="translate(0 0.045)"/>
</svg>
